<svg width="200" height="200" viewBox="0 0 200 200" fill="none" xmlns="http://www.w3.org/2000/svg">
  <defs>
    <linearGradient id="logoGradient" x1="0%" y1="0%" x2="100%" y2="100%">
      <stop offset="0%" stop-color="#22c55e" />
      <stop offset="100%" stop-color="#10b981" />
    </linearGradient>
  </defs>
  <rect x="20" y="20" width="160" height="160" rx="24" fill="url(#logoGradient)"/>
  <rect x="36" y="140" width="28" height="18" rx="3" fill="rgba(255,255,255,0.25)" stroke="rgba(255,255,255,0.4)" stroke-width="1"/>
  <rect x="70" y="140" width="28" height="18" rx="3" fill="rgba(255,255,255,0.25)" stroke="rgba(255,255,255,0.4)" stroke-width="1"/>
  <rect x="104" y="140" width="28" height="18" rx="3" fill="rgba(255,255,255,0.25)" stroke="rgba(255,255,255,0.4)" stroke-width="1"/>
  <rect x="138" y="140" width="28" height="18" rx="3" fill="rgba(255,255,255,0.25)" stroke="rgba(255,255,255,0.4)" stroke-width="1"/>
  <rect x="46" y="115" width="30" height="20" rx="3" fill="rgba(255,255,255,0.25)" stroke="rgba(255,255,255,0.4)" stroke-width="1"/>
  <rect x="84" y="115" width="30" height="20" rx="3" fill="rgba(255,255,255,0.25)" stroke="rgba(255,255,255,0.4)" stroke-width="1"/>
  <rect x="122" y="115" width="30" height="20" rx="3" fill="rgba(255,255,255,0.25)" stroke="rgba(255,255,255,0.4)" stroke-width="1"/>
  <path d="M70 65V55C70 41.1929 81.1929 30 95 30H105C118.807 30 130 41.1929 130 55V65" stroke="white" stroke-width="6" stroke-linecap="round" fill="none"/>
  <rect x="60" y="62" width="80" height="50" rx="8" fill="white"/>
  <circle cx="100" cy="82" r="8" fill="#22c55e"/>
  <path d="M100 88V100" stroke="#22c55e" stroke-width="6" stroke-linecap="round"/>
</svg>